<?xml version="1.0" encoding="UTF-8" standalone="no"?>
<svg xmlns="http://www.w3.org/2000/svg" xmlns:xlink="http://www.w3.org/1999/xlink" contentScriptType="application/ecmascript" contentStyleType="text/css" height="363px" preserveAspectRatio="none" style="width:351px;height:363px;" version="1.1" viewBox="0 0 351 363" width="351px" zoomAndPan="magnify"><defs><filter height="300%" id="f8twujat1gli6" width="300%" x="-1" y="-1"><feGaussianBlur result="blurOut" stdDeviation="2.0"/><feColorMatrix in="blurOut" result="blurOut2" type="matrix" values="0 0 0 0 0 0 0 0 0 0 0 0 0 0 0 0 0 0 .4 0"/><feOffset dx="4.0" dy="4.0" in="blurOut2" result="blurOut3"/><feBlend in="SourceGraphic" in2="blurOut3" mode="normal"/></filter></defs><g><text fill="#000000" font-family="sans-serif" font-size="18" lengthAdjust="spacingAndGlyphs" textLength="280" x="39" y="16.708">Relationships - Metamodel class</text><!--class Metamodel--><rect fill="#FEFECE" filter="url(#f8twujat1gli6)" height="73.6094" id="Metamodel" style="stroke: #A80036; stroke-width: 1.5;" width="134" x="108" y="153.9531"/><ellipse cx="137.85" cy="169.9531" fill="#ADD1B2" rx="11" ry="11" style="stroke: #A80036; stroke-width: 1.0;"/><path d="M140.1938,165.625 L140.3656,165.7031 C140.5844,165.3906 140.7875,165.2969 141.0844,165.2969 C141.3813,165.2969 141.6625,165.4375 141.8188,165.7031 C141.9125,165.8594 141.9281,165.9844 141.9281,166.4219 L141.9281,167.8438 C141.9281,168.2656 141.8969,168.4531 141.7875,168.6094 C141.6156,168.8281 141.35,168.9688 141.0844,168.9688 C140.8656,168.9688 140.6313,168.8594 140.4906,168.7188 C140.35,168.5938 140.3188,168.4688 140.2563,168.0625 C140.1625,167.6563 139.9906,167.4375 139.5063,167.1563 C139.0375,166.9063 138.4281,166.75 137.85,166.75 C136.1156,166.75 134.8656,168.0625 134.8656,169.8438 L134.8656,170.9375 C134.8656,172.6406 136.1625,173.7344 138.2094,173.7344 C138.975,173.7344 139.6625,173.6094 140.0844,173.3438 C140.2719,173.25 140.2719,173.25 140.725,172.7656 C140.9125,172.5781 141.1156,172.5 141.3344,172.5 C141.8031,172.5 142.1938,172.8906 142.1938,173.3438 C142.1938,173.7344 141.8656,174.1875 141.2875,174.5938 C140.5375,175.1406 139.3813,175.4375 138.1625,175.4375 C135.2719,175.4375 133.1625,173.5469 133.1625,170.9688 L133.1625,169.8438 C133.1625,167.125 135.1625,165.0469 137.7875,165.0469 C138.6625,165.0469 139.2563,165.1875 140.1938,165.625 Z "/><text fill="#000000" font-family="sans-serif" font-size="12" lengthAdjust="spacingAndGlyphs" textLength="69" x="155.15" y="174.1074">Metamodel</text><line style="stroke: #A80036; stroke-width: 1.5;" x1="109" x2="241" y1="185.9531" y2="185.9531"/><ellipse cx="119" cy="197.8555" fill="none" rx="3" ry="3" style="stroke: #038048; stroke-width: 1.0;"/><text fill="#000000" font-family="sans-serif" font-size="11" lengthAdjust="spacingAndGlyphs" textLength="67" x="128" y="200.1636">Int Windows</text><line style="stroke: #A80036; stroke-width: 1.5;" x1="109" x2="241" y1="206.7578" y2="206.7578"/><ellipse cx="119" cy="218.6602" fill="#84BE84" rx="3" ry="3" style="stroke: #038048; stroke-width: 1.0;"/><text fill="#000000" font-family="sans-serif" font-size="11" lengthAdjust="spacingAndGlyphs" textLength="108" x="128" y="220.9683">void LockTheDoor()</text><!--class Apartment--><rect fill="#FEFECE" filter="url(#f8twujat1gli6)" height="48" id="Apartment" style="stroke: #A80036; stroke-width: 1.5;" width="98" x="6" y="304.9531"/><ellipse cx="21" cy="320.9531" fill="#ADD1B2" rx="11" ry="11" style="stroke: #A80036; stroke-width: 1.0;"/><path d="M23.3438,316.625 L23.5156,316.7031 C23.7344,316.3906 23.9375,316.2969 24.2344,316.2969 C24.5313,316.2969 24.8125,316.4375 24.9688,316.7031 C25.0625,316.8594 25.0781,316.9844 25.0781,317.4219 L25.0781,318.8438 C25.0781,319.2656 25.0469,319.4531 24.9375,319.6094 C24.7656,319.8281 24.5,319.9688 24.2344,319.9688 C24.0156,319.9688 23.7813,319.8594 23.6406,319.7188 C23.5,319.5938 23.4688,319.4688 23.4063,319.0625 C23.3125,318.6563 23.1406,318.4375 22.6563,318.1563 C22.1875,317.9063 21.5781,317.75 21,317.75 C19.2656,317.75 18.0156,319.0625 18.0156,320.8438 L18.0156,321.9375 C18.0156,323.6406 19.3125,324.7344 21.3594,324.7344 C22.125,324.7344 22.8125,324.6094 23.2344,324.3438 C23.4219,324.25 23.4219,324.25 23.875,323.7656 C24.0625,323.5781 24.2656,323.5 24.4844,323.5 C24.9531,323.5 25.3438,323.8906 25.3438,324.3438 C25.3438,324.7344 25.0156,325.1875 24.4375,325.5938 C23.6875,326.1406 22.5313,326.4375 21.3125,326.4375 C18.4219,326.4375 16.3125,324.5469 16.3125,321.9688 L16.3125,320.8438 C16.3125,318.125 18.3125,316.0469 20.9375,316.0469 C21.8125,316.0469 22.4063,316.1875 23.3438,316.625 Z "/><text fill="#000000" font-family="sans-serif" font-size="12" lengthAdjust="spacingAndGlyphs" textLength="66" x="35" y="325.1074">Apartment</text><line style="stroke: #A80036; stroke-width: 1.5;" x1="7" x2="103" y1="336.9531" y2="336.9531"/><line style="stroke: #A80036; stroke-width: 1.5;" x1="7" x2="103" y1="344.9531" y2="344.9531"/><!--class House--><rect fill="#FEFECE" filter="url(#f8twujat1gli6)" height="48" id="House" style="stroke: #A80036; stroke-width: 1.5;" width="72" x="139" y="304.9531"/><ellipse cx="154" cy="320.9531" fill="#ADD1B2" rx="11" ry="11" style="stroke: #A80036; stroke-width: 1.0;"/><path d="M156.3438,316.625 L156.5156,316.7031 C156.7344,316.3906 156.9375,316.2969 157.2344,316.2969 C157.5313,316.2969 157.8125,316.4375 157.9688,316.7031 C158.0625,316.8594 158.0781,316.9844 158.0781,317.4219 L158.0781,318.8438 C158.0781,319.2656 158.0469,319.4531 157.9375,319.6094 C157.7656,319.8281 157.5,319.9688 157.2344,319.9688 C157.0156,319.9688 156.7813,319.8594 156.6406,319.7188 C156.5,319.5938 156.4688,319.4688 156.4063,319.0625 C156.3125,318.6563 156.1406,318.4375 155.6563,318.1563 C155.1875,317.9063 154.5781,317.75 154,317.75 C152.2656,317.75 151.0156,319.0625 151.0156,320.8438 L151.0156,321.9375 C151.0156,323.6406 152.3125,324.7344 154.3594,324.7344 C155.125,324.7344 155.8125,324.6094 156.2344,324.3438 C156.4219,324.25 156.4219,324.25 156.875,323.7656 C157.0625,323.5781 157.2656,323.5 157.4844,323.5 C157.9531,323.5 158.3438,323.8906 158.3438,324.3438 C158.3438,324.7344 158.0156,325.1875 157.4375,325.5938 C156.6875,326.1406 155.5313,326.4375 154.3125,326.4375 C151.4219,326.4375 149.3125,324.5469 149.3125,321.9688 L149.3125,320.8438 C149.3125,318.125 151.3125,316.0469 153.9375,316.0469 C154.8125,316.0469 155.4063,316.1875 156.3438,316.625 Z "/><text fill="#000000" font-family="sans-serif" font-size="12" lengthAdjust="spacingAndGlyphs" textLength="40" x="168" y="325.1074">House</text><line style="stroke: #A80036; stroke-width: 1.5;" x1="140" x2="210" y1="336.9531" y2="336.9531"/><line style="stroke: #A80036; stroke-width: 1.5;" x1="140" x2="210" y1="344.9531" y2="344.9531"/><!--class Commune--><rect fill="#FEFECE" filter="url(#f8twujat1gli6)" height="48" id="Commune" style="stroke: #A80036; stroke-width: 1.5;" width="94" x="246" y="304.9531"/><ellipse cx="261" cy="320.9531" fill="#ADD1B2" rx="11" ry="11" style="stroke: #A80036; stroke-width: 1.0;"/><path d="M263.3438,316.625 L263.5156,316.7031 C263.7344,316.3906 263.9375,316.2969 264.2344,316.2969 C264.5313,316.2969 264.8125,316.4375 264.9688,316.7031 C265.0625,316.8594 265.0781,316.9844 265.0781,317.4219 L265.0781,318.8438 C265.0781,319.2656 265.0469,319.4531 264.9375,319.6094 C264.7656,319.8281 264.5,319.9688 264.2344,319.9688 C264.0156,319.9688 263.7813,319.8594 263.6406,319.7188 C263.5,319.5938 263.4688,319.4688 263.4063,319.0625 C263.3125,318.6563 263.1406,318.4375 262.6563,318.1563 C262.1875,317.9063 261.5781,317.75 261,317.75 C259.2656,317.75 258.0156,319.0625 258.0156,320.8438 L258.0156,321.9375 C258.0156,323.6406 259.3125,324.7344 261.3594,324.7344 C262.125,324.7344 262.8125,324.6094 263.2344,324.3438 C263.4219,324.25 263.4219,324.25 263.875,323.7656 C264.0625,323.5781 264.2656,323.5 264.4844,323.5 C264.9531,323.5 265.3438,323.8906 265.3438,324.3438 C265.3438,324.7344 265.0156,325.1875 264.4375,325.5938 C263.6875,326.1406 262.5313,326.4375 261.3125,326.4375 C258.4219,326.4375 256.3125,324.5469 256.3125,321.9688 L256.3125,320.8438 C256.3125,318.125 258.3125,316.0469 260.9375,316.0469 C261.8125,316.0469 262.4063,316.1875 263.3438,316.625 Z "/><text fill="#000000" font-family="sans-serif" font-size="12" lengthAdjust="spacingAndGlyphs" textLength="62" x="275" y="325.1074">Commune</text><line style="stroke: #A80036; stroke-width: 1.5;" x1="247" x2="339" y1="336.9531" y2="336.9531"/><line style="stroke: #A80036; stroke-width: 1.5;" x1="247" x2="339" y1="344.9531" y2="344.9531"/><!--class Window--><rect fill="#FEFECE" filter="url(#f8twujat1gli6)" height="48" id="Window" style="stroke: #A80036; stroke-width: 1.5;" width="79" x="196.5" y="28.9531"/><ellipse cx="211.5" cy="44.9531" fill="#ADD1B2" rx="11" ry="11" style="stroke: #A80036; stroke-width: 1.0;"/><path d="M213.8438,40.625 L214.0156,40.7031 C214.2344,40.3906 214.4375,40.2969 214.7344,40.2969 C215.0313,40.2969 215.3125,40.4375 215.4688,40.7031 C215.5625,40.8594 215.5781,40.9844 215.5781,41.4219 L215.5781,42.8438 C215.5781,43.2656 215.5469,43.4531 215.4375,43.6094 C215.2656,43.8281 215,43.9688 214.7344,43.9688 C214.5156,43.9688 214.2813,43.8594 214.1406,43.7188 C214,43.5938 213.9688,43.4688 213.9063,43.0625 C213.8125,42.6563 213.6406,42.4375 213.1563,42.1563 C212.6875,41.9063 212.0781,41.75 211.5,41.75 C209.7656,41.75 208.5156,43.0625 208.5156,44.8438 L208.5156,45.9375 C208.5156,47.6406 209.8125,48.7344 211.8594,48.7344 C212.625,48.7344 213.3125,48.6094 213.7344,48.3438 C213.9219,48.25 213.9219,48.25 214.375,47.7656 C214.5625,47.5781 214.7656,47.5 214.9844,47.5 C215.4531,47.5 215.8438,47.8906 215.8438,48.3438 C215.8438,48.7344 215.5156,49.1875 214.9375,49.5938 C214.1875,50.1406 213.0313,50.4375 211.8125,50.4375 C208.9219,50.4375 206.8125,48.5469 206.8125,45.9688 L206.8125,44.8438 C206.8125,42.125 208.8125,40.0469 211.4375,40.0469 C212.3125,40.0469 212.9063,40.1875 213.8438,40.625 Z "/><text fill="#000000" font-family="sans-serif" font-size="12" lengthAdjust="spacingAndGlyphs" textLength="47" x="225.5" y="49.1074">Window</text><line style="stroke: #A80036; stroke-width: 1.5;" x1="197.5" x2="274.5" y1="60.9531" y2="60.9531"/><line style="stroke: #A80036; stroke-width: 1.5;" x1="197.5" x2="274.5" y1="68.9531" y2="68.9531"/><!--class Door--><rect fill="#FEFECE" filter="url(#f8twujat1gli6)" height="48" id="Door" style="stroke: #A80036; stroke-width: 1.5;" width="62" x="83" y="28.9531"/><ellipse cx="98" cy="44.9531" fill="#ADD1B2" rx="11" ry="11" style="stroke: #A80036; stroke-width: 1.0;"/><path d="M100.3438,40.625 L100.5156,40.7031 C100.7344,40.3906 100.9375,40.2969 101.2344,40.2969 C101.5313,40.2969 101.8125,40.4375 101.9688,40.7031 C102.0625,40.8594 102.0781,40.9844 102.0781,41.4219 L102.0781,42.8438 C102.0781,43.2656 102.0469,43.4531 101.9375,43.6094 C101.7656,43.8281 101.5,43.9688 101.2344,43.9688 C101.0156,43.9688 100.7813,43.8594 100.6406,43.7188 C100.5,43.5938 100.4688,43.4688 100.4063,43.0625 C100.3125,42.6563 100.1406,42.4375 99.6563,42.1563 C99.1875,41.9063 98.5781,41.75 98,41.75 C96.2656,41.75 95.0156,43.0625 95.0156,44.8438 L95.0156,45.9375 C95.0156,47.6406 96.3125,48.7344 98.3594,48.7344 C99.125,48.7344 99.8125,48.6094 100.2344,48.3438 C100.4219,48.25 100.4219,48.25 100.875,47.7656 C101.0625,47.5781 101.2656,47.5 101.4844,47.5 C101.9531,47.5 102.3438,47.8906 102.3438,48.3438 C102.3438,48.7344 102.0156,49.1875 101.4375,49.5938 C100.6875,50.1406 99.5313,50.4375 98.3125,50.4375 C95.4219,50.4375 93.3125,48.5469 93.3125,45.9688 L93.3125,44.8438 C93.3125,42.125 95.3125,40.0469 97.9375,40.0469 C98.8125,40.0469 99.4063,40.1875 100.3438,40.625 Z "/><text fill="#000000" font-family="sans-serif" font-size="12" lengthAdjust="spacingAndGlyphs" textLength="30" x="112" y="49.1074">Door</text><line style="stroke: #A80036; stroke-width: 1.5;" x1="84" x2="144" y1="60.9531" y2="60.9531"/><line style="stroke: #A80036; stroke-width: 1.5;" x1="84" x2="144" y1="68.9531" y2="68.9531"/><!--link Metamodel to Apartment--><path d="M108.94,242.0651 C103.6336,247.1791 98.5669,252.5061 94,257.9531 C82.113,272.132 72.0507,290.472 65.1256,304.8224 " fill="none" id="Metamodel-Apartment" style="stroke: #A80036; stroke-width: 1.0;"/><polygon fill="none" points="104.7483,236.4221,124.314,228.2871,114.092,246.8481,104.7483,236.4221" style="stroke: #A80036; stroke-width: 1.0;"/><text fill="#000000" font-family="sans-serif" font-size="13" lengthAdjust="spacingAndGlyphs" textLength="71" x="95" y="271.02">Inheritance</text><!--link Metamodel to Commune--><path d="M239.198,241.9781 C244.453,247.1301 249.475,252.4881 254,257.9531 C265.8,272.2047 275.865,290.5419 282.814,304.8728 " fill="none" id="Metamodel-Commune" style="stroke: #A80036; stroke-width: 1.0;"/><polygon fill="none" points="234.033,246.7411,223.986,228.0851,243.474,236.4041,234.033,246.7411" style="stroke: #A80036; stroke-width: 1.0;"/><text fill="#000000" font-family="sans-serif" font-size="13" lengthAdjust="spacingAndGlyphs" textLength="71" x="267" y="271.02">Inheritance</text><!--link Metamodel to House--><path d="M175,248.2011 C175,267.9291 175,289.0182 175,304.5521 " fill="none" id="Metamodel-House" style="stroke: #A80036; stroke-width: 1.0;"/><polygon fill="none" points="168,248.0411,175,228.0411,182,248.0411,168,248.0411" style="stroke: #A80036; stroke-width: 1.0;"/><text fill="#000000" font-family="sans-serif" font-size="13" lengthAdjust="spacingAndGlyphs" textLength="71" x="176" y="271.02">Inheritance</text><!--link Window to Metamodel--><path d="M225.652,77.0241 C217.679,94.8001 206.38,119.9901 196.477,142.0711 " fill="none" id="Window-Metamodel" style="stroke: #A80036; stroke-width: 1.0;"/><polygon fill="#A80036" points="191.148,153.9511,197.2531,150.1135,196.0588,143.002,189.9537,146.8396,191.148,153.9511" style="stroke: #A80036; stroke-width: 1.0;"/><text fill="#000000" font-family="sans-serif" font-size="13" lengthAdjust="spacingAndGlyphs" textLength="80" x="212" y="120.02">Composition</text><text fill="#000000" font-family="sans-serif" font-size="13" lengthAdjust="spacingAndGlyphs" textLength="36" x="182.3878" y="97.1981">many</text><text fill="#000000" font-family="sans-serif" font-size="13" lengthAdjust="spacingAndGlyphs" textLength="8" x="185.3878" y="142.8612">1</text><!--link Door to Metamodel--><path d="M110.75,77.1401 C109.722,91.1741 110.107,109.1571 116,123.9531 C118.666,130.6461 122.333,137.1011 126.546,143.1801 " fill="none" id="Door-Metamodel" style="stroke: #A80036; stroke-width: 1.0;"/><polygon fill="#A80036" points="134.621,153.6881,134.1375,146.4933,127.3101,144.1723,127.7936,151.3672,134.621,153.6881" style="stroke: #A80036; stroke-width: 1.0;"/><text fill="#000000" font-family="sans-serif" font-size="13" lengthAdjust="spacingAndGlyphs" textLength="80" x="117" y="120.02">Composition</text><text fill="#000000" font-family="sans-serif" font-size="13" lengthAdjust="spacingAndGlyphs" textLength="36" x="69.5702" y="96.9469">many</text><text fill="#000000" font-family="sans-serif" font-size="13" lengthAdjust="spacingAndGlyphs" textLength="8" x="118.716" y="142.8279">1</text><!--
@startuml
title Relationships - Metamodel class


class Metamodel {
  +Int Windows
  +void LockTheDoor()
}

class Apartment
class House
class Commune
class Window
class Door

Metamodel <|-down- Apartment: Inheritance
Metamodel <|-down- Commune: Inheritance
Metamodel <|-down- House: Inheritance
Metamodel "1" *-up- "many" Window: Composition
Metamodel "1" *-up- "many" Door: Composition
@enduml

PlantUML version 1.2017.18(Fri Oct 06 16:56:32 UTC 2017)
(GPL source distribution)
Java Runtime: Java(TM) SE Runtime Environment
JVM: Java HotSpot(TM) 64-Bit Server VM
Java Version: 1.7.0_25-b15
Operating System: Linux
Default Encoding: UTF-8
Language: en
Country: US
--></g></svg>