<?xml version="1.0" encoding="UTF-8" standalone="no"?><svg xmlns="http://www.w3.org/2000/svg" xmlns:xlink="http://www.w3.org/1999/xlink" contentScriptType="application/ecmascript" contentStyleType="text/css" height="343px" preserveAspectRatio="none" style="width:767px;height:343px;" version="1.1" viewBox="0 0 767 343" width="767px" zoomAndPan="magnify"><defs><filter height="300%" id="f1667nkm7bp9gm" width="300%" x="-1" y="-1"><feGaussianBlur result="blurOut" stdDeviation="2.0"/><feColorMatrix in="blurOut" result="blurOut2" type="matrix" values="0 0 0 0 0 0 0 0 0 0 0 0 0 0 0 0 0 0 .4 0"/><feOffset dx="4.0" dy="4.0" in="blurOut2" result="blurOut3"/><feBlend in="SourceGraphic" in2="blurOut3" mode="normal"/></filter></defs><g><!--cluster Messages--><polygon fill="#FFFFFF" filter="url(#f1667nkm7bp9gm)" points="22,72.5,107,72.5,114,94.7969,294,94.7969,294,184.5,22,184.5,22,72.5" style="stroke: #000000; stroke-width: 2.0;"/><line style="stroke: #000000; stroke-width: 2.0;" x1="22" x2="114" y1="94.7969" y2="94.7969"/><text fill="#000000" font-family="sans-serif" font-size="14" font-weight="bold" lengthAdjust="spacingAndGlyphs" textLength="79" x="26" y="87.4951">Messages</text><!--cluster Entities--><polygon fill="#DDDDDD" filter="url(#f1667nkm7bp9gm)" points="318,60,382,60,389,82.2969,745,82.2969,745,331,318,331,318,60" style="stroke: #000000; stroke-width: 2.0;"/><line style="stroke: #000000; stroke-width: 2.0;" x1="318" x2="389" y1="82.2969" y2="82.2969"/><text fill="#000000" font-family="sans-serif" font-size="14" font-weight="bold" lengthAdjust="spacingAndGlyphs" textLength="58" x="322" y="74.9951">Entities</text><!--class Msg1--><a target="_top" xlink:actuate="onRequest" xlink:href="http://www.yahoo.com" xlink:show="new" xlink:title="http://www.yahoo.com" xlink:type="simple"><rect fill="#FEFECE" filter="url(#f1667nkm7bp9gm)" height="48" id="Msg1" style="stroke: #A80036; stroke-width: 1.5;" width="65" x="38.5" y="114"/><ellipse cx="53.5" cy="130" fill="#ADD1B2" rx="11" ry="11" style="stroke: #A80036; stroke-width: 1.0;"/><path d="M55.8438,125.6719 L56.0156,125.75 C56.2344,125.4375 56.4375,125.3438 56.7344,125.3438 C57.0313,125.3438 57.3125,125.4844 57.4688,125.75 C57.5625,125.9063 57.5781,126.0313 57.5781,126.4688 L57.5781,127.8906 C57.5781,128.3125 57.5469,128.5 57.4375,128.6563 C57.2656,128.875 57,129.0156 56.7344,129.0156 C56.5156,129.0156 56.2813,128.9063 56.1406,128.7656 C56,128.6406 55.9688,128.5156 55.9063,128.1094 C55.8125,127.7031 55.6406,127.4844 55.1563,127.2031 C54.6875,126.9531 54.0781,126.7969 53.5,126.7969 C51.7656,126.7969 50.5156,128.1094 50.5156,129.8906 L50.5156,130.9844 C50.5156,132.6875 51.8125,133.7813 53.8594,133.7813 C54.625,133.7813 55.3125,133.6563 55.7344,133.3906 C55.9219,133.2969 55.9219,133.2969 56.375,132.8125 C56.5625,132.625 56.7656,132.5469 56.9844,132.5469 C57.4531,132.5469 57.8438,132.9375 57.8438,133.3906 C57.8438,133.7813 57.5156,134.2344 56.9375,134.6406 C56.1875,135.1875 55.0313,135.4844 53.8125,135.4844 C50.9219,135.4844 48.8125,133.5938 48.8125,131.0156 L48.8125,129.8906 C48.8125,127.1719 50.8125,125.0938 53.4375,125.0938 C54.3125,125.0938 54.9063,125.2344 55.8438,125.6719 Z "/><text fill="#000000" font-family="sans-serif" font-size="12" lengthAdjust="spacingAndGlyphs" textLength="33" x="67.5" y="134.1543">Msg1</text><line style="stroke: #A80036; stroke-width: 1.5;" x1="39.5" x2="102.5" y1="146" y2="146"/><line style="stroke: #A80036; stroke-width: 1.5;" x1="39.5" x2="102.5" y1="154" y2="154"/></a><!--class Msg2--><rect fill="#FEFECE" filter="url(#f1667nkm7bp9gm)" height="60.8047" id="Msg2" style="stroke: #A80036; stroke-width: 1.5;" width="139" x="138.5" y="107.5"/><ellipse cx="187.25" cy="123.5" fill="#ADD1B2" rx="11" ry="11" style="stroke: #A80036; stroke-width: 1.0;"/><path d="M189.5938,119.1719 L189.7656,119.25 C189.9844,118.9375 190.1875,118.8438 190.4844,118.8438 C190.7813,118.8438 191.0625,118.9844 191.2188,119.25 C191.3125,119.4063 191.3281,119.5313 191.3281,119.9688 L191.3281,121.3906 C191.3281,121.8125 191.2969,122 191.1875,122.1563 C191.0156,122.375 190.75,122.5156 190.4844,122.5156 C190.2656,122.5156 190.0313,122.4063 189.8906,122.2656 C189.75,122.1406 189.7188,122.0156 189.6563,121.6094 C189.5625,121.2031 189.3906,120.9844 188.9063,120.7031 C188.4375,120.4531 187.8281,120.2969 187.25,120.2969 C185.5156,120.2969 184.2656,121.6094 184.2656,123.3906 L184.2656,124.4844 C184.2656,126.1875 185.5625,127.2813 187.6094,127.2813 C188.375,127.2813 189.0625,127.1563 189.4844,126.8906 C189.6719,126.7969 189.6719,126.7969 190.125,126.3125 C190.3125,126.125 190.5156,126.0469 190.7344,126.0469 C191.2031,126.0469 191.5938,126.4375 191.5938,126.8906 C191.5938,127.2813 191.2656,127.7344 190.6875,128.1406 C189.9375,128.6875 188.7813,128.9844 187.5625,128.9844 C184.6719,128.9844 182.5625,127.0938 182.5625,124.5156 L182.5625,123.3906 C182.5625,120.6719 184.5625,118.5938 187.1875,118.5938 C188.0625,118.5938 188.6563,118.7344 189.5938,119.1719 Z "/><text fill="#000000" font-family="sans-serif" font-size="12" lengthAdjust="spacingAndGlyphs" textLength="33" x="207.75" y="127.6543">Msg2</text><line style="stroke: #A80036; stroke-width: 1.5;" x1="139.5" x2="276.5" y1="139.5" y2="139.5"/><a target="_top" xlink:actuate="onRequest" xlink:href="http://www.yahoo.com" xlink:show="new" xlink:title="http://www.yahoo.com" xlink:type="simple"><text fill="#0000FF" font-family="sans-serif" font-size="11" lengthAdjust="spacingAndGlyphs" text-decoration="underline" textLength="127" x="144.5" y="153.7104">http://www.yahoo.com</text><line style="stroke: #0000FF; stroke-width: 1.0;" x1="144.5" x2="271.5" y1="155.7104" y2="155.7104"/></a><line style="stroke: #A80036; stroke-width: 1.5;" x1="139.5" x2="276.5" y1="160.3047" y2="160.3047"/><!--class Entity1--><a target="_top" xlink:actuate="onRequest" xlink:href="../help" xlink:show="new" xlink:title="This is a tooltip" xlink:type="simple"><rect fill="#FEFECE" filter="url(#f1667nkm7bp9gm)" height="73.6094" id="Entity1" style="stroke: #A80036; stroke-width: 1.5;" width="91" x="341.5" y="241"/><ellipse cx="363.7" cy="257" fill="#ADD1B2" rx="11" ry="11" style="stroke: #A80036; stroke-width: 1.0;"/><path d="M366.0438,252.6719 L366.2156,252.75 C366.4344,252.4375 366.6375,252.3438 366.9344,252.3438 C367.2313,252.3438 367.5125,252.4844 367.6688,252.75 C367.7625,252.9063 367.7781,253.0313 367.7781,253.4688 L367.7781,254.8906 C367.7781,255.3125 367.7469,255.5 367.6375,255.6563 C367.4656,255.875 367.2,256.0156 366.9344,256.0156 C366.7156,256.0156 366.4813,255.9063 366.3406,255.7656 C366.2,255.6406 366.1688,255.5156 366.1063,255.1094 C366.0125,254.7031 365.8406,254.4844 365.3563,254.2031 C364.8875,253.9531 364.2781,253.7969 363.7,253.7969 C361.9656,253.7969 360.7156,255.1094 360.7156,256.8906 L360.7156,257.9844 C360.7156,259.6875 362.0125,260.7813 364.0594,260.7813 C364.825,260.7813 365.5125,260.6563 365.9344,260.3906 C366.1219,260.2969 366.1219,260.2969 366.575,259.8125 C366.7625,259.625 366.9656,259.5469 367.1844,259.5469 C367.6531,259.5469 368.0438,259.9375 368.0438,260.3906 C368.0438,260.7813 367.7156,261.2344 367.1375,261.6406 C366.3875,262.1875 365.2313,262.4844 364.0125,262.4844 C361.1219,262.4844 359.0125,260.5938 359.0125,258.0156 L359.0125,256.8906 C359.0125,254.1719 361.0125,252.0938 363.6375,252.0938 C364.5125,252.0938 365.1063,252.2344 366.0438,252.6719 Z "/><text fill="#000000" font-family="sans-serif" font-size="12" lengthAdjust="spacingAndGlyphs" textLength="43" x="379.3" y="261.1543">Entity1</text><line style="stroke: #A80036; stroke-width: 1.5;" x1="342.5" x2="431.5" y1="273" y2="273"/><line style="stroke: #A80036; stroke-width: 1.5;" x1="342.5" x2="431.5" y1="281" y2="281"/><ellipse cx="352.5" cy="292.9023" fill="#84BE84" rx="3" ry="3" style="stroke: #038048; stroke-width: 1.0;"/><text fill="#000000" font-family="sans-serif" font-size="11" lengthAdjust="spacingAndGlyphs" textLength="65" x="361.5" y="295.2104">methods1()</text><ellipse cx="352.5" cy="305.707" fill="#84BE84" rx="3" ry="3" style="stroke: #038048; stroke-width: 1.0;"/><text fill="#000000" font-family="sans-serif" font-size="11" lengthAdjust="spacingAndGlyphs" textLength="65" x="361.5" y="308.0151">methods2()</text></a><!--class AbstractEntity--><rect fill="#FEFECE" filter="url(#f1667nkm7bp9gm)" height="48" id="AbstractEntity" style="stroke: #A80036; stroke-width: 1.5;" width="120" x="334" y="114"/><ellipse cx="349" cy="130" fill="#ADD1B2" rx="11" ry="11" style="stroke: #A80036; stroke-width: 1.0;"/><path d="M351.3438,125.6719 L351.5156,125.75 C351.7344,125.4375 351.9375,125.3438 352.2344,125.3438 C352.5313,125.3438 352.8125,125.4844 352.9688,125.75 C353.0625,125.9063 353.0781,126.0313 353.0781,126.4688 L353.0781,127.8906 C353.0781,128.3125 353.0469,128.5 352.9375,128.6563 C352.7656,128.875 352.5,129.0156 352.2344,129.0156 C352.0156,129.0156 351.7813,128.9063 351.6406,128.7656 C351.5,128.6406 351.4688,128.5156 351.4063,128.1094 C351.3125,127.7031 351.1406,127.4844 350.6563,127.2031 C350.1875,126.9531 349.5781,126.7969 349,126.7969 C347.2656,126.7969 346.0156,128.1094 346.0156,129.8906 L346.0156,130.9844 C346.0156,132.6875 347.3125,133.7813 349.3594,133.7813 C350.125,133.7813 350.8125,133.6563 351.2344,133.3906 C351.4219,133.2969 351.4219,133.2969 351.875,132.8125 C352.0625,132.625 352.2656,132.5469 352.4844,132.5469 C352.9531,132.5469 353.3438,132.9375 353.3438,133.3906 C353.3438,133.7813 353.0156,134.2344 352.4375,134.6406 C351.6875,135.1875 350.5313,135.4844 349.3125,135.4844 C346.4219,135.4844 344.3125,133.5938 344.3125,131.0156 L344.3125,129.8906 C344.3125,127.1719 346.3125,125.0938 348.9375,125.0938 C349.8125,125.0938 350.4063,125.2344 351.3438,125.6719 Z "/><text fill="#000000" font-family="sans-serif" font-size="12" lengthAdjust="spacingAndGlyphs" textLength="88" x="363" y="134.1543">AbstractEntity</text><line style="stroke: #A80036; stroke-width: 1.5;" x1="335" x2="453" y1="146" y2="146"/><line style="stroke: #A80036; stroke-width: 1.5;" x1="335" x2="453" y1="154" y2="154"/><!--class Entity2--><rect fill="#FEFECE" filter="url(#f1667nkm7bp9gm)" height="86.4141" id="Entity2" style="stroke: #A80036; stroke-width: 1.5;" width="240" x="489" y="95"/><ellipse cx="583.25" cy="111" fill="#ADD1B2" rx="11" ry="11" style="stroke: #A80036; stroke-width: 1.0;"/><path d="M585.5938,106.6719 L585.7656,106.75 C585.9844,106.4375 586.1875,106.3438 586.4844,106.3438 C586.7813,106.3438 587.0625,106.4844 587.2188,106.75 C587.3125,106.9063 587.3281,107.0313 587.3281,107.4688 L587.3281,108.8906 C587.3281,109.3125 587.2969,109.5 587.1875,109.6563 C587.0156,109.875 586.75,110.0156 586.4844,110.0156 C586.2656,110.0156 586.0313,109.9063 585.8906,109.7656 C585.75,109.6406 585.7188,109.5156 585.6563,109.1094 C585.5625,108.7031 585.3906,108.4844 584.9063,108.2031 C584.4375,107.9531 583.8281,107.7969 583.25,107.7969 C581.5156,107.7969 580.2656,109.1094 580.2656,110.8906 L580.2656,111.9844 C580.2656,113.6875 581.5625,114.7813 583.6094,114.7813 C584.375,114.7813 585.0625,114.6563 585.4844,114.3906 C585.6719,114.2969 585.6719,114.2969 586.125,113.8125 C586.3125,113.625 586.5156,113.5469 586.7344,113.5469 C587.2031,113.5469 587.5938,113.9375 587.5938,114.3906 C587.5938,114.7813 587.2656,115.2344 586.6875,115.6406 C585.9375,116.1875 584.7813,116.4844 583.5625,116.4844 C580.6719,116.4844 578.5625,114.5938 578.5625,112.0156 L578.5625,110.8906 C578.5625,108.1719 580.5625,106.0938 583.1875,106.0938 C584.0625,106.0938 584.6563,106.2344 585.5938,106.6719 Z "/><text fill="#000000" font-family="sans-serif" font-size="12" lengthAdjust="spacingAndGlyphs" textLength="43" x="603.75" y="115.1543">Entity2</text><line style="stroke: #A80036; stroke-width: 1.5;" x1="490" x2="728" y1="127" y2="127"/><a target="_top" xlink:actuate="onRequest" xlink:href="http://www.google.com" xlink:show="new" xlink:title="http://www.google.com" xlink:type="simple"><text fill="#0000FF" font-family="sans-serif" font-size="11" lengthAdjust="spacingAndGlyphs" text-decoration="underline" textLength="131" x="495" y="141.2104">http://www.google.com</text><line style="stroke: #0000FF; stroke-width: 1.0;" x1="495" x2="626" y1="143.2104" y2="143.2104"/></a><line style="stroke: #A80036; stroke-width: 1.5;" x1="490" x2="728" y1="147.8047" y2="147.8047"/><ellipse cx="500" cy="159.707" fill="#84BE84" rx="3" ry="3" style="stroke: #038048; stroke-width: 1.0;"/><a target="_top" xlink:actuate="onRequest" xlink:href="http://www.yahoo.com/A1" xlink:show="new" xlink:title="methods1()" xlink:type="simple"><text fill="#0000FF" font-family="sans-serif" font-size="11" lengthAdjust="spacingAndGlyphs" text-decoration="underline" textLength="145" x="509" y="162.0151">http://www.yahoo.com/A1</text><line style="stroke: #0000FF; stroke-width: 1.0;" x1="509" x2="654" y1="164.0151" y2="164.0151"/></a><ellipse cx="500" cy="172.5117" fill="#84BE84" rx="3" ry="3" style="stroke: #038048; stroke-width: 1.0;"/><text fill="#000000" font-family="sans-serif" font-size="11" lengthAdjust="spacingAndGlyphs" textLength="65" x="509" y="174.8198">methods2()</text><a target="_top" xlink:actuate="onRequest" xlink:href="http://www.yahoo.com/A2" xlink:show="new" xlink:title="http://www.yahoo.com/A2" xlink:type="simple"><text fill="#0000FF" font-family="sans-serif" font-size="11" lengthAdjust="spacingAndGlyphs" text-decoration="underline" textLength="145" x="578" y="174.8198">http://www.yahoo.com/A2</text><line style="stroke: #0000FF; stroke-width: 1.0;" x1="578" x2="723" y1="176.8198" y2="176.8198"/></a><!--link AbstractEntity to Entity1--><path d="M392.563,167.324 C391.484,188.591 389.999,217.878 388.834,240.838 " fill="none" id="AbstractEntity-Entity1" style="stroke: #A80036; stroke-width: 1.0;"/><polygon fill="#A80036" points="392.828,162.098,388.378,170.8842,392.5752,167.0916,396.3678,171.2887,392.828,162.098" style="stroke: #A80036; stroke-width: 1.0;"/><!--link Msg2 to Entity2--><path d="M230.578,107.248 C253.412,78.993 291.541,39.005 335.5,22 C384.827,2.919 404.33,5.262 454.5,22 C497.772,36.436 538.672,68.272 567.507,94.947 " fill="none" id="Msg2-Entity2" style="stroke: #A80036; stroke-width: 1.0; stroke-dasharray: 7.0,7.0;"/><!--link Msg1 to Entity1--><path d="M88.0924,162.164 C96.9,172.699 108.425,184.556 121,192.5 C190.847,236.621 285.647,259.454 341.179,269.7839 " fill="none" id="Msg1-Entity1" style="stroke: #A80036; stroke-width: 1.0; stroke-dasharray: 7.0,7.0;"/><!--
@startuml
package "Messages" {
    class Msg1 [[http://www.yahoo.com]]
 
    class Msg2 {
        [[http://www.yahoo.com]]
    }
}
package "Entities" #DDDDDD {
    class Entity1 [[../help{This is a tooltip} add a tooltip]]
    class Entity1 {
      + methods1()
      + methods2()
    }
    class AbstractEntity
    Entity1 -up-> AbstractEntity
    class Entity2 {
      [[http://www.google.com]]
      + [[http://www.yahoo.com/A1{methods1()}]]
      + methods2() [[http://www.yahoo.com/A2]]
    }
}

Msg2 .right. Entity2
Msg1 .right. Entity1
@enduml

PlantUML version 1.2017.18(Fri Oct 06 16:56:32 UTC 2017)
(GPL source distribution)
Java Runtime: Java(TM) SE Runtime Environment
JVM: Java HotSpot(TM) 64-Bit Server VM
Java Version: 1.7.0_25-b15
Operating System: Linux
Default Encoding: UTF-8
Language: en
Country: US
--></g></svg>